# This file uses centimeters as units for non-parametric coordinates.

mtllib trashcan.mtl
g default
v 1.239766 0.000000 -0.900743
v 0.473548 0.000000 -1.457432
v -0.473549 0.000000 -1.457432
v -1.239766 0.000000 -0.900742
v -1.532435 0.000000 0.000000
v -1.239766 0.000000 0.900743
v -0.473548 0.000000 1.457432
v 0.473548 0.000000 1.457432
v 1.239766 0.000000 0.900742
v 1.532434 0.000000 0.000000
v 2.079918 3.128784 -1.511149
v 1.459416 3.128784 -2.445090
v -1.521756 3.128784 -2.445090
v -2.079918 3.128784 -1.511148
v -2.570920 3.128784 0.000000
v -2.079918 3.128784 1.511149
v -1.521756 3.128784 2.445090
v 1.459416 3.128784 2.445090
v 2.079918 3.128784 1.511148
v 2.570920 3.128784 0.000000
v 0.000000 0.000000 0.000000
v 1.850834 3.128784 -1.104953
v 1.467610 3.128784 -1.787852
v -1.529950 3.128784 -1.787852
v -1.850835 3.128784 -1.104952
v -2.170894 3.128784 0.000000
v -1.894578 3.128784 1.104953
v -1.529950 3.128784 1.787851
v 1.467611 3.128784 1.787851
v 1.894578 3.128784 1.104953
v 2.170894 3.128784 0.000000
v 1.149448 0.526311 -0.937032
v 0.660538 0.526311 -1.516150
v -0.000000 0.526311 -0.000000
v -0.660538 0.526311 -1.516150
v -1.149448 0.526311 -0.937032
v -1.420795 0.526311 0.000000
v -1.149448 0.526311 0.937032
v -0.660538 0.526311 1.516150
v 0.660538 0.526311 1.516150
v 1.149448 0.526311 0.937032
v 1.420795 0.526311 0.000000
v -0.740312 0.539173 1.824554
v -1.288268 0.395787 1.050199
v -1.592387 0.395787 0.000000
v -1.288268 0.395787 -1.050199
v -0.740313 0.539173 -1.824553
v 0.740312 0.539173 -1.824554
v 1.288268 0.395787 -1.050199
v 1.592387 0.395787 0.000000
v 1.288268 0.395787 1.050199
v 0.740312 0.539173 1.824553
vt 0.626409 0.064409
vt 0.548284 0.007647
vt 0.451716 0.007647
vt 0.373591 0.064409
vt 0.343750 0.156250
vt 0.373591 0.248091
vt 0.451716 0.304853
vt 0.548284 0.304853
vt 0.626409 0.248091
vt 0.656250 0.156250
vt 0.375000 0.312500
vt 0.400000 0.312500
vt 0.425000 0.312500
vt 0.450000 0.312500
vt 0.475000 0.312500
vt 0.500000 0.312500
vt 0.525000 0.312500
vt 0.550000 0.312500
vt 0.575000 0.312500
vt 0.600000 0.312500
vt 0.625000 0.312500
vt 0.375000 0.688440
vt 0.400000 0.688440
vt 0.425000 0.688440
vt 0.450000 0.688440
vt 0.475000 0.688440
vt 0.500000 0.688440
vt 0.525000 0.688440
vt 0.550000 0.688440
vt 0.575000 0.688440
vt 0.600000 0.688440
vt 0.625000 0.688440
vt 0.626409 0.751909
vt 0.548284 0.695147
vt 0.451716 0.695147
vt 0.373591 0.751909
vt 0.343750 0.843750
vt 0.373591 0.935591
vt 0.451716 0.992353
vt 0.548284 0.992353
vt 0.626409 0.935591
vt 0.656250 0.843750
vt 0.500000 0.150000
vt 0.500000 0.837500
vt 0.626409 0.935591
vt 0.548284 0.992353
vt 0.451716 0.992353
vt 0.373591 0.935591
vt 0.343750 0.843750
vt 0.373591 0.751909
vt 0.451716 0.695147
vt 0.548284 0.695147
vt 0.626409 0.751909
vt 0.656250 0.843750
vt 0.626409 0.935591
vt 0.548284 0.992353
vt 0.451716 0.992353
vt 0.373591 0.935591
vt 0.343750 0.843750
vt 0.373591 0.751909
vt 0.451716 0.695147
vt 0.548284 0.695147
vt 0.626409 0.751909
vt 0.656250 0.843750
vt 0.525000 0.404548
vt 0.500000 0.404548
vt 0.475000 0.404548
vt 0.450000 0.404548
vt 0.425000 0.404548
vt 0.400000 0.404548
vt 0.625000 0.404548
vt 0.375000 0.404548
vt 0.600000 0.404548
vt 0.575000 0.404548
vt 0.550000 0.404548
vt 0.049423 0.000000
vt 0.966098 0.000000
vt 1.000000 0.088462
vt 0.000000 0.270224
vt 0.053879 0.135355
vt 0.946121 0.135355
vt 1.000000 0.000000
vt 0.000000 0.000000
vt 0.032520 0.000000
vt 0.948936 0.000000
vt 1.000000 0.268079
vt 0.000000 0.088110
vt 0.033902 0.000000
vt 0.950577 0.000000
vt 1.000000 0.270162
vt 0.000000 0.088562
vt 0.053879 0.000000
vt 0.946121 0.000000
vt 1.000000 0.135355
vt 0.000000 0.135355
vt 0.051064 0.000000
vt 0.967480 0.000000
vt 1.000000 0.088239
vt 0.000000 0.267998
vn 0.571139 -0.536055 -0.621647
vn 0.571139 -0.536055 -0.621647
vn 0.571139 -0.536055 -0.621647
vn 0.571139 -0.536055 -0.621647
vn -0.000000 -0.562817 -0.826581
vn -0.000000 -0.562817 -0.826581
vn -0.000000 -0.562817 -0.826581
vn -0.000000 -0.562817 -0.826581
vn -0.571140 -0.536055 -0.621647
vn -0.571140 -0.536055 -0.621647
vn -0.571140 -0.536055 -0.621647
vn -0.571140 -0.536055 -0.621647
vn -0.940094 -0.183101 -0.287572
vn -0.940094 -0.183101 -0.287572
vn -0.940094 -0.183101 -0.287572
vn -0.940094 -0.183101 -0.287572
vn -0.940094 -0.183100 0.287572
vn -0.940094 -0.183100 0.287572
vn -0.940094 -0.183100 0.287572
vn -0.940094 -0.183100 0.287572
vn -0.571139 -0.536055 0.621647
vn -0.571139 -0.536055 0.621647
vn -0.571139 -0.536055 0.621647
vn -0.571139 -0.536055 0.621647
vn 0.000000 -0.562817 0.826582
vn 0.000000 -0.562817 0.826582
vn 0.000000 -0.562817 0.826582
vn 0.000000 -0.562817 0.826582
vn 0.571140 -0.536055 0.621647
vn 0.571140 -0.536055 0.621647
vn 0.571140 -0.536055 0.621647
vn 0.571140 -0.536055 0.621647
vn 0.940094 -0.183100 0.287572
vn 0.940094 -0.183100 0.287572
vn 0.940094 -0.183100 0.287572
vn 0.940094 -0.183100 0.287572
vn 0.940094 -0.183100 -0.287572
vn 0.940094 -0.183100 -0.287572
vn 0.940094 -0.183100 -0.287572
vn 0.940094 -0.183100 -0.287572
vn 0.000000 -1.000000 0.000000
vn 0.000000 -1.000000 0.000000
vn 0.000000 -1.000000 0.000000
vn 0.000000 -1.000000 0.000000
vn 0.000000 -1.000000 0.000000
vn 0.000000 -1.000000 0.000000
vn 0.000000 -1.000000 0.000000
vn 0.000000 -1.000000 0.000000
vn 0.000000 -1.000000 0.000000
vn 0.000000 -1.000000 0.000000
vn 0.000000 -1.000000 0.000000
vn 0.000000 -1.000000 0.000000
vn 0.000000 -1.000000 0.000000
vn 0.000000 -1.000000 0.000000
vn 0.000000 -1.000000 0.000000
vn 0.000000 -1.000000 0.000000
vn 0.000000 -1.000000 0.000000
vn 0.000000 -1.000000 0.000000
vn 0.000000 -1.000000 0.000000
vn 0.000000 -1.000000 0.000000
vn 0.000000 -1.000000 0.000000
vn 0.000000 -1.000000 0.000000
vn 0.000000 -1.000000 0.000000
vn 0.000000 -1.000000 0.000000
vn 0.000000 -1.000000 0.000000
vn 0.000000 -1.000000 0.000000
vn 0.000000 -1.000000 0.000000
vn 0.000000 -1.000000 0.000000
vn 0.000000 -1.000000 0.000000
vn 0.000000 -1.000000 0.000000
vn 0.000000 1.000000 0.000000
vn 0.000000 1.000000 0.000000
vn 0.000000 1.000000 0.000000
vn 0.000000 1.000000 -0.000000
vn 0.000000 1.000000 -0.000000
vn 0.000000 1.000000 -0.000000
vn -0.000000 1.000000 0.000000
vn -0.000000 1.000000 0.000000
vn -0.000000 1.000000 0.000000
vn -0.000000 1.000000 -0.000000
vn -0.000000 1.000000 -0.000000
vn -0.000000 1.000000 -0.000000
vn -0.000000 1.000000 0.000000
vn -0.000000 1.000000 0.000000
vn -0.000000 1.000000 0.000000
vn -0.000000 1.000000 -0.000000
vn -0.000000 1.000000 -0.000000
vn -0.000000 1.000000 -0.000000
vn 0.000000 1.000000 0.000000
vn 0.000000 1.000000 0.000000
vn 0.000000 1.000000 0.000000
vn 0.000000 1.000000 -0.000000
vn 0.000000 1.000000 -0.000000
vn 0.000000 1.000000 -0.000000
vn 0.000000 1.000000 0.000000
vn 0.000000 1.000000 0.000000
vn 0.000000 1.000000 0.000000
vn 0.000000 1.000000 -0.000000
vn 0.000000 1.000000 -0.000000
vn 0.000000 1.000000 -0.000000
vn 0.000000 1.000000 0.000000
vn 0.000000 1.000000 0.000000
vn 0.000000 1.000000 0.000000
vn 0.000000 1.000000 0.000000
vn 0.000000 1.000000 -0.000000
vn 0.000000 1.000000 -0.000000
vn 0.000000 1.000000 -0.000000
vn 0.000000 1.000000 -0.000000
vn 0.000000 1.000000 -0.000000
vn 0.000000 1.000000 -0.000000
vn 0.000000 1.000000 -0.000000
vn 0.000000 1.000000 -0.000000
vn 0.000000 1.000000 0.000000
vn 0.000000 1.000000 0.000000
vn 0.000000 1.000000 0.000000
vn 0.000000 1.000000 0.000000
vn 0.000000 1.000000 0.000000
vn 0.000000 1.000000 0.000000
vn 0.000000 1.000000 0.000000
vn 0.000000 1.000000 0.000000
vn 0.000000 1.000000 0.000000
vn 0.000000 1.000000 0.000000
vn 0.000000 1.000000 0.000000
vn 0.000000 1.000000 0.000000
vn 0.000000 1.000000 0.000000
vn 0.000000 1.000000 0.000000
vn 0.000000 1.000000 0.000000
vn 0.000000 1.000000 0.000000
vn 0.000000 1.000000 0.000000
vn 0.000000 1.000000 0.000000
vn 0.000000 1.000000 0.000000
vn 0.000000 1.000000 0.000000
vn -0.790866 0.275365 0.546539
vn -0.790866 0.275365 0.546539
vn -0.790866 0.275365 0.546539
vn -0.790866 0.275365 0.546539
vn 0.806226 0.287005 0.517328
vn 0.806226 0.287005 0.517328
vn 0.806226 0.287005 0.517328
vn 0.806226 0.287005 0.517328
vn 0.925709 0.266799 0.268107
vn 0.925709 0.266799 0.268107
vn 0.925709 0.266799 0.268107
vn 0.925709 0.266799 0.268107
vn 0.928676 0.274817 -0.249072
vn 0.928676 0.274817 -0.249072
vn 0.928676 0.274817 -0.249072
vn 0.928676 0.274817 -0.249072
vn 0.792468 0.291088 -0.535969
vn 0.792468 0.291088 -0.535969
vn 0.792468 0.291088 -0.535969
vn 0.792468 0.291088 -0.535969
vn -0.777105 0.279379 -0.563964
vn -0.777105 0.279379 -0.563964
vn -0.777105 0.279379 -0.563964
vn -0.777105 0.279379 -0.563964
vn -0.928676 0.274817 -0.249072
vn -0.928676 0.274817 -0.249072
vn -0.928676 0.274817 -0.249072
vn -0.928676 0.274817 -0.249072
vn -0.925709 0.266799 0.268107
vn -0.925709 0.266799 0.268107
vn -0.925709 0.266799 0.268107
vn -0.925709 0.266799 0.268107
vn -0.776941 -0.337599 0.531404
vn -0.776941 -0.337599 0.531404
vn -0.776941 -0.337599 0.531404
vn -0.776941 -0.337599 0.531404
vn -0.905770 -0.317049 0.281179
vn -0.905770 -0.317049 0.281179
vn -0.905770 -0.317049 0.281179
vn -0.905770 -0.317049 0.281179
vn -0.905770 -0.317049 -0.281179
vn -0.905770 -0.317049 -0.281179
vn -0.905770 -0.317049 -0.281179
vn -0.905770 -0.317049 -0.281179
vn -0.776941 -0.337599 -0.531404
vn -0.776941 -0.337599 -0.531404
vn -0.776941 -0.337599 -0.531404
vn -0.776941 -0.337599 -0.531404
vn 0.766162 -0.329565 -0.551709
vn 0.766162 -0.329565 -0.551709
vn 0.766162 -0.329565 -0.551709
vn 0.766162 -0.329565 -0.551709
vn 0.905770 -0.317049 -0.281179
vn 0.905770 -0.317049 -0.281179
vn 0.905770 -0.317049 -0.281179
vn 0.905770 -0.317049 -0.281179
vn 0.905770 -0.317049 0.281179
vn 0.905770 -0.317049 0.281179
vn 0.905770 -0.317049 0.281179
vn 0.905770 -0.317049 0.281179
vn 0.766162 -0.329565 0.551709
vn 0.766162 -0.329565 0.551709
vn 0.766162 -0.329565 0.551709
vn 0.766162 -0.329565 0.551709
vn -0.960300 0.270660 0.067579
vn -0.960300 0.270660 0.067579
vn -0.960300 0.270660 0.067579
vn -0.960300 0.270660 0.067579
vn 0.000000 0.999132 -0.041670
vn 0.000000 0.999132 -0.041670
vn 0.000000 0.999132 -0.041670
vn 0.000000 0.999132 -0.041670
vn 0.954116 0.291881 0.066838
vn 0.954116 0.291881 0.066838
vn 0.954116 0.291881 0.066838
vn 0.954116 0.291881 0.066838
vn -0.960300 0.270660 -0.067579
vn -0.960300 0.270660 -0.067579
vn -0.960300 0.270660 -0.067579
vn -0.960300 0.270660 -0.067579
vn 0.000000 0.999132 0.041670
vn 0.000000 0.999132 0.041670
vn 0.000000 0.999132 0.041670
vn 0.000000 0.999132 0.041670
vn 0.954116 0.291882 -0.066838
vn 0.954116 0.291882 -0.066838
vn 0.954116 0.291882 -0.066838
vn 0.954116 0.291882 -0.066838
s off
g pCylinder1
usemtl initialShadingGroup
f 1/11/1 2/12/2 48/70/3 49/72/4
f 2/12/5 3/13/6 47/69/7 48/70/8
f 3/13/9 4/14/10 46/68/11 47/69/12
f 4/14/13 5/15/14 45/67/15 46/68/16
f 5/15/17 6/16/18 44/66/19 45/67/20
f 6/16/21 7/17/22 43/65/23 44/66/24
f 7/17/25 8/18/26 52/75/27 43/65/28
f 8/18/29 9/19/30 51/74/31 52/75/32
f 9/19/33 10/20/34 50/73/35 51/74/36
f 10/20/37 1/21/38 49/71/39 50/73/40
f 2/2/41 1/1/42 21/43/43
f 3/3/44 2/2/45 21/43/46
f 4/4/47 3/3/48 21/43/49
f 5/5/50 4/4/51 21/43/52
f 6/6/53 5/5/54 21/43/55
f 7/7/56 6/6/57 21/43/58
f 8/8/59 7/7/60 21/43/61
f 9/9/62 8/8/63 21/43/64
f 10/10/65 9/9/66 21/43/67
f 1/1/68 10/10/69 21/43/70
f 32/55/71 33/56/72 34/44/73
f 33/56/74 35/57/75 34/44/76
f 35/57/77 36/58/78 34/44/79
f 36/58/80 37/59/81 34/44/82
f 37/59/83 38/60/84 34/44/85
f 38/60/86 39/61/87 34/44/88
f 39/61/89 40/62/90 34/44/91
f 40/62/92 41/63/93 34/44/94
f 41/63/95 42/64/96 34/44/97
f 42/64/98 32/55/99 34/44/100
f 11/41/101 12/40/102 23/46/103 22/45/104
f 13/39/105 14/38/106 25/48/107 24/47/108
f 14/38/109 15/37/110 26/49/111 25/48/112
f 15/37/113 16/36/114 27/50/115 26/49/116
f 16/36/117 17/35/118 28/51/119 27/50/120
f 18/34/121 19/33/122 30/53/123 29/52/124
f 19/33/125 20/42/126 31/54/127 30/53/128
f 20/42/129 11/41/130 22/45/131 31/54/132
f 22/45/133 23/46/134 33/56/135 32/55/136
f 24/47/137 25/48/138 36/58/139 35/57/140
f 25/48/141 26/49/142 37/59/143 36/58/144
f 26/49/145 27/50/146 38/60/147 37/59/148
f 27/50/149 28/51/150 39/61/151 38/60/152
f 29/52/153 30/53/154 41/63/155 40/62/156
f 30/53/157 31/54/158 42/64/159 41/63/160
f 31/54/161 22/45/162 32/55/163 42/64/164
f 44/66/165 43/65/166 17/28/167 16/27/168
f 45/67/169 44/66/170 16/27/171 15/26/172
f 46/68/173 45/67/174 15/26/175 14/25/176
f 47/69/177 46/68/178 14/25/179 13/24/180
f 49/72/181 48/70/182 12/23/183 11/22/184
f 50/73/185 49/71/186 11/32/187 20/31/188
f 51/74/189 50/73/190 20/31/191 19/30/192
f 52/75/193 51/74/194 19/30/195 18/29/196
f 29/76/197 40/77/198 52/78/199 18/79/200
f 40/80/201 39/81/202 43/82/203 52/83/204
f 39/84/205 28/85/206 17/86/207 43/87/208
f 33/88/209 23/89/210 12/90/211 48/91/212
f 35/92/213 33/93/214 48/94/215 47/95/216
f 24/96/217 35/97/218 47/98/219 13/99/220
